<?xml version="1.0" encoding="UTF-8"?>
<svg width="33px" height="33px" viewBox="0 0 33 33" version="1.1" xmlns="http://www.w3.org/2000/svg" xmlns:xlink="http://www.w3.org/1999/xlink">
    <title>BitKeep</title>
    <g id="Page-1" stroke="none" stroke-width="1" fill="none" fill-rule="evenodd">
        <g id="BitKeep" transform="translate(0.300000, 0.300000)">
            <rect id="Rectangle" x="3.55271368e-15" y="1.42108547e-14" width="32" height="32"></rect>
            <path d="M16,2.84217094e-14 L16,2.84217094e-14 C24.8375,2.84217094e-14 32,7.1625 32,16 L32,16 C32,24.8375 24.8375,32 16,32 L16,32 C7.1625,32 3.55271368e-15,24.8375 3.55271368e-15,16 L3.55271368e-15,16 C3.55271368e-15,7.165625 7.1625,2.84217094e-14 16,2.84217094e-14 Z" id="Path" fill="#7524F9"></path>
            <path d="M25.95,11.071875 L25.95,12.203125 C25.95,12.425 25.83125,12.63125 25.640625,12.740625 L21.996875,14.84375 L25.25,16.715625 C25.684375,16.965625 25.95,17.428125 25.95,17.928125 L25.95,20.940625 C25.95,21.440625 25.68125,21.903125 25.246875,22.153125 L16.690625,27.0625 C16.259375,27.309375 15.728125,27.309375 15.29375,27.059375 L12.49375,25.440625 C12.2875,25.321875 12.2875,25.021875 12.49375,24.903125 L21.7375,19.58125 C21.840625,19.521875 21.840625,19.371875 21.7375,19.3125 L18.303125,17.328125 C18.1125,17.215625 17.875,17.215625 17.68125,17.328125 L8.2875,22.740625 C8.14375,22.821875 7.965625,22.825 7.821875,22.740625 L6.759375,22.13125 C6.325,21.88125 6.05625,21.41875 6.05625,20.915625 L6.05625,19.68125 C6.05625,19.515625 6.146875,19.359375 6.290625,19.278125 L19.75625,11.540625 C19.859375,11.48125 19.859375,11.33125 19.75625,11.271875 L16.31875,9.28125 C16.128125,9.16875 15.890625,9.16875 15.696875,9.28125 L6.521875,14.559375 C6.315625,14.678125 6.05625,14.528125 6.05625,14.290625 L6.05625,11.05625 C6.05625,10.55625 6.325,10.09375 6.759375,9.84375 L15.315625,4.934375 C15.746875,4.6875 16.278125,4.6875 16.709375,4.934375 L25.246875,9.859375 C25.68125,10.1125 25.95,10.571875 25.95,11.071875 Z" id="Path" fill="#FFFFFF"></path>
        </g>
    </g>
</svg>